<?xml version="1.0" encoding="UTF-8"?>
<svg version="1.1" xmlns="http://www.w3.org/2000/svg" width="500" height="500">
<path d="M0 0 C5.59269463 4.74289558 10.83759019 9.79635689 16 15 C16.69480469 15.68578125 17.38960937 16.3715625 18.10546875 17.078125 C40.08443467 40.0055266 47.536505 71.77914832 47.2109375 102.62109375 C46.48826686 132.87958116 32.73315925 161.37349098 12 183 C11.03126953 184.04607422 11.03126953 184.04607422 10.04296875 185.11328125 C4.90548251 190.50188698 -0.83448768 194.84357839 -7 199 C-7.85207031 199.59167969 -8.70414063 200.18335938 -9.58203125 200.79296875 C-12 202 -12 202 -14.08203125 202.0625 C-17.09414155 200.39387678 -18.06148989 197.99976708 -19.6875 195 C-20.02273682 194.38858154 -20.35797363 193.77716309 -20.70336914 193.1472168 C-21.81667248 191.10560627 -22.90868704 189.05344059 -24 187 C-24.82772554 185.46462833 -25.65585892 183.92947647 -26.484375 182.39453125 C-32.78096755 170.65709736 -32.78096755 170.65709736 -34 167 C-34.73391968 167.00222061 -35.46783936 167.00444122 -36.22399902 167.00672913 C-43.16752302 167.02683262 -50.11104263 167.04202521 -57.05458832 167.05181217 C-60.62364451 167.05701301 -64.19267649 167.06405936 -67.76171875 167.07543945 C-71.21116878 167.08636839 -74.66059563 167.09229788 -78.11006165 167.09487724 C-80.05527511 167.09760235 -82.00047937 167.10539828 -83.94567871 167.11329651 C-90.06206168 167.11368128 -95.95486108 166.95362726 -102 166 C-101.39740182 161.37417281 -99.45546521 157.66294733 -97.25 153.625 C-96.91484375 152.99078125 -96.5796875 152.3565625 -96.234375 151.703125 C-95.19193282 149.76828914 -94.15142077 147.87313515 -93 146 C-92.68654129 145.41550583 -92.37308258 144.83101166 -92.05012512 144.22880554 C-89.14191667 139.37213095 -89.14191667 139.37213095 -86.12539673 138.38909912 C-83.85822863 138.18969667 -81.69145674 138.21157359 -79.41796875 138.31640625 C-78.60378983 138.32631088 -77.7896109 138.33621552 -76.95075989 138.34642029 C-74.36114018 138.3854754 -71.7758282 138.47326389 -69.1875 138.5625 C-67.4277958 138.5976261 -65.66802484 138.62956286 -63.90820312 138.65820312 C-59.60381982 138.73520624 -55.302639 138.85591369 -51 139 C-55.43541983 130.04101162 -59.90129793 121.1197266 -64.75 112.375 C-65.20503906 111.54355469 -65.66007812 110.71210938 -66.12890625 109.85546875 C-68.57279944 105.42547216 -71.11919195 101.15967144 -74 97 C-76.81475786 100.35617452 -79.05420974 103.6740307 -81.1015625 107.54296875 C-81.66891113 108.60749268 -82.23625977 109.6720166 -82.82080078 110.76879883 C-83.71387939 112.46105591 -83.71387939 112.46105591 -84.625 114.1875 C-85.5685567 115.95982495 -86.51425105 117.73099726 -87.46017456 119.50205994 C-88.39751563 121.25708376 -89.33352977 123.01281606 -90.26953125 124.76855469 C-92.51934561 128.96981638 -94.80741326 133.14830299 -97.125 137.3125 C-97.52001709 138.02253174 -97.91503418 138.73256348 -98.32202148 139.46411133 C-100.43944379 143.25334084 -102.58499767 147.02516224 -104.75390625 150.78515625 C-105.73200036 152.48163852 -106.70985995 154.17825603 -107.6875 155.875 C-108.17613525 156.72288086 -108.66477051 157.57076172 -109.16821289 158.44433594 C-114.31633716 167.44182508 -119.17809379 176.59046254 -124.01245117 185.75927734 C-124.61806885 186.90219238 -125.22368652 188.04510742 -125.84765625 189.22265625 C-126.38398682 190.24109619 -126.92031738 191.25953613 -127.47290039 192.30883789 C-128.83438787 194.70814669 -130.28582186 196.84386775 -132 199 C-136.62509876 197.68246445 -140.0101877 195.84885893 -143.875 193 C-144.84179688 192.29875 -145.80859375 191.5975 -146.8046875 190.875 C-147.89136719 189.946875 -147.89136719 189.946875 -149 189 C-149 188.34 -149 187.68 -149 187 C-149.928125 186.566875 -149.928125 186.566875 -150.875 186.125 C-153 185 -153 185 -155 183 C-154.67877212 178.53505036 -153.32745157 175.25179812 -151.19140625 171.359375 C-150.61455078 170.298396 -150.03769531 169.23741699 -149.44335938 168.14428711 C-148.82267578 167.02417236 -148.20199219 165.90405762 -147.5625 164.75 C-146.91791837 163.57273078 -146.27404474 162.39507365 -145.63085938 161.21704102 C-143.7647482 157.8053447 -141.88322841 154.40227941 -140 151 C-139.1131202 149.38941159 -138.22637967 147.77874647 -137.33984375 146.16796875 C-134.91107846 141.76861092 -132.4569666 137.38365263 -130 133 C-128.92178056 131.07296951 -127.84366196 129.14588258 -126.765625 127.21875 C-122.56991553 119.72101482 -118.36884251 112.22628778 -114.16796875 104.73144531 C-110.1090472 97.4892689 -106.05274904 90.24563245 -102 83 C-101.5467334 82.19014648 -101.0934668 81.38029297 -100.62646484 80.54589844 C-94.78357461 70.09917882 -89.05107764 59.59568367 -83.37670898 49.05639648 C-82.85149658 48.08259033 -82.32628418 47.10878418 -81.78515625 46.10546875 C-81.31988525 45.24074951 -80.85461426 44.37603027 -80.37524414 43.48510742 C-78.97395747 40.95294036 -77.50333524 38.47271105 -76 36 C-74.21459961 36.13427734 -74.21459961 36.13427734 -72 37 C-70.28344727 39.50244141 -70.28344727 39.50244141 -68.56640625 42.8515625 C-68.25247421 43.4531871 -67.93854218 44.05481171 -67.61509705 44.67466736 C-66.93919902 45.97312243 -66.26937239 47.27475212 -65.60498047 48.57913208 C-63.83779876 52.04722618 -62.02627078 55.49216409 -60.22265625 58.94140625 C-59.86164825 59.63509811 -59.50064026 60.32878998 -59.12869263 61.04350281 C-56.04558307 66.95651483 -52.8129868 72.77509841 -49.5 78.5625 C-44.63703598 87.08650012 -39.85643231 95.65255309 -35.125 104.25 C-33.77223471 106.70708593 -32.41934273 109.16410208 -31.06640625 111.62109375 C-30.56284859 112.5356987 -30.56284859 112.5356987 -30.04911804 113.46878052 C-21.11416418 129.69093131 -12.11129904 145.87621064 -3 162 C0.13630431 162.34495807 0.13630431 162.34495807 2.1640625 159.9375 C21.57389591 136.76893694 29.95808503 110.09972977 28 80 C25.51477322 52.54169582 11.31053948 28.22603675 -9 10 C-33.87317794 -9.80879377 -63.29333002 -16.85633414 -94.73828125 -13.72753906 C-121.02500838 -9.97987562 -145.85157789 4.92887056 -162.08984375 25.6171875 C-163.64925926 27.56247065 -165.11172061 29.37532656 -167 31 C-167.66 31 -168.32 31 -169 31 C-167.89377152 19.53545034 -156.38024849 10.93905926 -148 4 C-105.27099239 -30.67041274 -44.46761631 -33.81263346 0 0 Z " fill="#146136" transform="translate(311,160)"/>
<path d="M0 0 C5.59269463 4.74289558 10.83759019 9.79635689 16 15 C16.69480469 15.68578125 17.38960937 16.3715625 18.10546875 17.078125 C40.08443467 40.0055266 47.536505 71.77914832 47.2109375 102.62109375 C46.49723779 132.50396504 32.95228144 161.89077263 12 183 C10.05224907 184.77141134 8.08841259 186.39352878 6 188 C5.896875 186.948125 5.79375 185.89625 5.6875 184.8125 C5.00089857 181.00498299 4.06988747 179.18444226 2 176 C-1 169.55555556 -1 169.55555556 -1 166 C-1.99 165.67 -2.98 165.34 -4 165 C-5.1875 161.9375 -5.1875 161.9375 -6 159 C-4.35 160.32 -2.7 161.64 -1 163 C12.65048241 148.94037507 21.41975161 132.02564717 26 113 C26.3403125 111.6078125 26.3403125 111.6078125 26.6875 110.1875 C32.39901438 82.26454082 25.15137277 54.5680663 10 31 C-5.92184645 8.03336832 -30.82876842 -7.54410656 -58.1015625 -13.109375 C-88.64118476 -18.38499364 -118.11507735 -10.74929411 -143.30175781 6.76953125 C-150.68876844 12.12182187 -156.47656736 18.46560851 -162.08984375 25.6171875 C-163.64925926 27.56247065 -165.11172061 29.37532656 -167 31 C-167.66 31 -168.32 31 -169 31 C-167.89377152 19.53545034 -156.38024849 10.93905926 -148 4 C-105.27099239 -30.67041274 -44.46761631 -33.81263346 0 0 Z " fill="#22509D" transform="translate(311,160)"/>
<path d="M0 0 C1.9296875 1.73828125 1.9296875 1.73828125 3 3 C-2.11365014 1.9318153 -7.07227969 0.76892524 -12 -1 C-12 -0.34 -12 0.32 -12 1 C-11.34 1.33 -10.68 1.66 -10 2 C-10.99 3.485 -10.99 3.485 -12 5 C-10.02 4.505 -10.02 4.505 -8 4 C-7.67 5.32 -7.34 6.64 -7 8 C-4.36 8 -1.72 8 1 8 C0.67 9.32 0.34 10.64 0 12 C4.03110882 14.87228012 4.03110882 14.87228012 8.5625 16.75 C12.37871034 18.70703094 14.14656745 22.21426543 16 26 C16 26.66 16 27.32 16 28 C16.99 28.33 17.98 28.66 19 29 C20.01866229 30.65532623 21.01810813 32.32260138 22 34 C22.99 34.66 23.98 35.32 25 36 C26.1875 39.125 26.1875 39.125 27 42 C27.66 42 28.32 42 29 42 C29.33 43.98 29.66 45.96 30 48 C30.66 48 31.32 48 32 48 C32.40992188 48.98742187 32.81984375 49.97484375 33.2421875 50.9921875 C33.78620174 52.28656621 34.33048669 53.58083116 34.875 54.875 C35.27912109 55.85146484 35.27912109 55.85146484 35.69140625 56.84765625 C36.88423286 59.66970945 37.81257989 61.81257989 40 64 C40 66 40 68 40 70 C40.309375 70.763125 40.61875 71.52625 40.9375 72.3125 C42.21014641 75.5315468 42.46705747 78.48358522 42.75390625 81.9140625 C42.95105034 84.19131318 42.95105034 84.19131318 44 87 C44.07591005 91.16812013 43.90406156 95.32854269 43.75805664 99.49438477 C43.68858844 101.53059623 43.63374659 103.56683454 43.58007812 105.60351562 C43.36293512 112.17938368 42.98539729 118.45735672 41.44995117 124.86694336 C40.79770332 127.95901577 40.662851 131.03652003 40.5390625 134.1875 C40 136 40 136 37.9609375 137.25 C37.31382812 137.4975 36.66671875 137.745 36 138 C36 139.32 36 140.64 36 142 C35.34 142 34.68 142 34 142 C33.66935547 143.47533203 33.66935547 143.47533203 33.33203125 144.98046875 C31.98729016 149.66876275 29.45628641 153.34500925 26.6875 157.3125 C25.9769043 158.38467773 25.9769043 158.38467773 25.25195312 159.47851562 C22.60231932 163.32429055 20.75915966 165.8470524 16 167 C17.41847083 163.94959913 19.12177545 161.38486515 21.125 158.6875 C29.41600884 146.8728124 34.64421111 134.98664097 38 121 C38.36931641 119.51306641 38.36931641 119.51306641 38.74609375 117.99609375 C44.47750723 90.2086201 37.06358938 62.43151863 22 39 C6.07815355 16.03336832 -18.82876842 0.45589344 -46.1015625 -5.109375 C-76.64118476 -10.38499364 -106.11507735 -2.74929411 -131.30175781 14.76953125 C-138.68876844 20.12182187 -144.47656736 26.46560851 -150.08984375 33.6171875 C-151.64925926 35.56247065 -153.11172061 37.37532656 -155 39 C-155.66 39 -156.32 39 -157 39 C-155.89377152 27.53545034 -144.38024849 18.93905926 -136 12 C-97.5990813 -19.15859168 -43.28144679 -25.95779865 0 0 Z " fill="#324B7D" transform="translate(299,152)"/>
<path d="M0 0 C4.56535579 0.48914526 6.69793332 2.13367457 10 5.25 C10.87269531 6.06855469 11.74539063 6.88710937 12.64453125 7.73046875 C13.42183594 8.47941406 14.19914062 9.22835937 15 10 C15.886875 10.845625 16.77375 11.69125 17.6875 12.5625 C18.450625 13.366875 19.21375 14.17125 20 15 C20.50660156 15.50015625 21.01320313 16.0003125 21.53515625 16.515625 C37.20887671 32.93911341 42.50923645 55.04667641 42.21484375 77.13671875 C41.73975269 92.27766443 36.24977497 106.44106422 28 119 C26.234375 118.890625 26.234375 118.890625 24 118 C22.078125 115.234375 22.078125 115.234375 20.25 111.75 C19.63640625 110.61046875 19.0228125 109.4709375 18.390625 108.296875 C16.99844611 104.99631606 16.39524058 103.48405649 17 100 C18.20123079 97.44631459 19.44974282 95.02491661 20.8125 92.5625 C29.29409288 76.2770247 30.78499059 57.28398339 25.390625 39.6953125 C20.17260814 25.8294587 13.30836933 13.73943523 1.46875 4.47265625 C0 3 0 3 0 0 Z " fill="#235099" transform="translate(280,187)"/>
<path d="M0 0 C6.40603527 2.18151471 10.91747256 6.67734267 16 11 C16.71800781 11.58136719 17.43601562 12.16273438 18.17578125 12.76171875 C35.82059043 27.36553878 47.48384235 50.02089124 53 72 C53.24556641 72.96679688 53.24556641 72.96679688 53.49609375 73.953125 C61.13269988 105.50934866 54.64953085 139.27004171 37.90917969 166.79345703 C31.65655692 176.65336216 24.28901081 185.85460707 15 193 C14.896875 191.948125 14.79375 190.89625 14.6875 189.8125 C14.00089857 186.00498299 13.06988747 184.18444226 11 181 C8 174.55555556 8 174.55555556 8 171 C7.01 170.67 6.02 170.34 5 170 C3.8125 166.9375 3.8125 166.9375 3 164 C4.65 165.32 6.3 166.64 8 168 C10.475 166.02 10.475 166.02 13 164 C12.51421457 167.12290635 12.0013988 169.99580359 11 173 C11.30806453 175.07647876 11.30806453 175.07647876 11.9375 177.1875 C12.4634375 179.0746875 12.4634375 179.0746875 13 181 C13.66 181 14.32 181 15 181 C15.99 183.475 15.99 183.475 17 186 C23.22522666 182.17997455 26.54682726 177.97801374 29.984375 171.703125 C31 170 31 170 33.25 167.25 C35.30697031 165.08039699 35.30697031 165.08039699 35 162 C37 160 37 160 39 159 C39 158.34 39 157.68 39 157 C39.66 157 40.32 157 41 157 C41.18175781 156.26394531 41.36351562 155.52789062 41.55078125 154.76953125 C42.86912621 149.6516485 44.20142636 145.50205325 47 141 C47.77887336 138.32262282 48.41931862 135.72114922 49 133 C49.24878906 131.88367188 49.49757813 130.76734375 49.75390625 129.6171875 C52.03533829 119.23501851 53.14103031 109.68825539 53.0625 99.0625 C53.05798828 97.90169922 53.05347656 96.74089844 53.04882812 95.54492188 C53.03710647 92.69656066 53.0206976 89.84830778 53 87 C52.01 86.505 52.01 86.505 51 86 C51.05220703 85.14728516 51.05220703 85.14728516 51.10546875 84.27734375 C51.26779918 79.64706153 51.00882605 76.35368155 48.9140625 72.125 C47.68086813 69.25808659 46.93753417 66.32482178 46.125 63.3125 C43.45035542 51.41094347 43.45035542 51.41094347 36.37890625 42.31640625 C35.59386719 41.88199219 34.80882812 41.44757813 34 41 C33.375 38.625 33.375 38.625 33 36 C32.02308143 34.31970006 31.02611949 32.65071396 30 31 C30 30.34 30 29.68 30 29 C29.401875 28.7525 28.80375 28.505 28.1875 28.25 C25.68373081 26.81927475 24.51927612 25.4308418 23 23 C23 22.34 23 21.68 23 21 C22.34 21 21.68 21 21 21 C19.375 19.625 19.375 19.625 18 18 C18 17.34 18 16.68 18 16 C17.195625 15.6596875 17.195625 15.6596875 16.375 15.3125 C12.55153791 13.19953411 9.28542176 10.38063819 6.3125 7.1875 C4.92422799 5.66454334 4.92422799 5.66454334 2 6 C1.34 4.02 0.68 2.04 0 0 Z " fill="#2C4779" transform="translate(302,155)"/>
<path d="M0 0 C4.56535579 0.48914526 6.69793332 2.13367457 10 5.25 C10.87269531 6.06855469 11.74539063 6.88710937 12.64453125 7.73046875 C13.42183594 8.47941406 14.19914062 9.22835937 15 10 C15.886875 10.845625 16.77375 11.69125 17.6875 12.5625 C18.450625 13.366875 19.21375 14.17125 20 15 C20.50660156 15.50015625 21.01320313 16.0003125 21.53515625 16.515625 C37.20887671 32.93911341 42.50923645 55.04667641 42.21484375 77.13671875 C41.73975269 92.27766443 36.24977497 106.44106422 28 119 C26.234375 118.890625 26.234375 118.890625 24 118 C22.078125 115.234375 22.078125 115.234375 20.25 111.75 C19.63640625 110.61046875 19.0228125 109.4709375 18.390625 108.296875 C16.99844611 104.99631606 16.39524058 103.48405649 17 100 C18.20123079 97.44631459 19.44974282 95.02491661 20.8125 92.5625 C29.29409288 76.2770247 30.78499059 57.28398339 25.390625 39.6953125 C20.17260814 25.8294587 13.30836933 13.73943523 1.46875 4.47265625 C0 3 0 3 0 0 Z M25 26 C24.71159922 30.71054601 25.23148542 33.77328832 27.19921875 38.03515625 C33.22949804 52.83140251 31.61077837 75.03249519 25.53515625 89.484375 C23.57008002 93.50101002 21.48023322 97.27965018 19 101 C19 102.32 19 103.64 19 105 C19.66 105 20.32 105 21 105 C21 105.99 21 106.98 21 108 C21.66 108 22.32 108 23 108 C23.0825 108.78375 23.165 109.5675 23.25 110.375 C23.71229528 113.15242111 23.71229528 113.15242111 26.046875 114.1640625 C26.69140625 114.43992187 27.3359375 114.71578125 28 115 C31.15415144 109.72645827 33.66081326 104.64750908 35.421875 98.75 C36 97 36 97 37 96 C40.36282686 78.5934506 41.81866856 61.84612231 35 45 C33.96844131 42.0873637 33.05930063 39.3642753 32.5625 36.3125 C31.90031525 33.59018491 31.02545793 32.86965348 29 31 C27.99431758 29.33675599 26.99335201 27.67063747 26 26 C25.67 26 25.34 26 25 26 Z " fill="#2B4473" transform="translate(280,187)"/>
<path d="M0 0 C0 0.33 0 0.66 0 1 C-1.02770508 0.98952637 -2.05541016 0.97905273 -3.11425781 0.96826172 C-6.98336199 0.93164 -10.85245137 0.9089486 -14.72167969 0.89013672 C-16.38576853 0.88017404 -18.04984031 0.86659898 -19.71386719 0.84912109 C-35.25820444 0.16143735 -35.25820444 0.16143735 -50 4 C-46.21658497 6.52227669 -44.27775083 6.19103331 -39.76171875 6.08984375 C-38.28581118 6.06937885 -36.80989953 6.04920671 -35.33398438 6.02929688 C-33.028391 5.98630835 -30.72306781 5.93834549 -28.41772461 5.88354492 C-18.11791976 5.65645028 -9.02334949 6.31393885 1 9 C-2.32276044 10.09305742 -4.51695413 9.85602802 -7.90234375 9.0859375 C-37.49089756 3.26732951 -66.76830369 10.99741278 -91.4765625 27.5 C-99.61649982 33.16180766 -105.9825928 39.83626161 -112.08984375 47.6171875 C-113.64925926 49.56247065 -115.11172061 51.37532656 -117 53 C-117.66 53 -118.32 53 -119 53 C-117.89377152 41.53545034 -106.38024849 32.93905926 -98 26 C-69.64874715 2.99572977 -36.0309591 -5.65191515 0 0 Z " fill="#3D5481" transform="translate(261,138)"/>
<path d="M0 0 C2.48141694 0.01630398 4.96125436 -0.00006218 7.44262695 -0.01904297 C9.04093779 -0.01706376 10.63924766 -0.01322679 12.23754883 -0.00732422 C13.33450829 -0.01643326 13.33450829 -0.01643326 14.45362854 -0.02572632 C19.15864275 0.03857912 22.35053205 0.99862075 26.38989258 3.39111328 C26.38989258 4.05111328 26.38989258 4.71111328 26.38989258 5.39111328 C28.03989258 5.39111328 29.68989258 5.39111328 31.38989258 5.39111328 C31.38989258 6.05111328 31.38989258 6.71111328 31.38989258 7.39111328 C34.35989258 7.88611328 34.35989258 7.88611328 37.38989258 8.39111328 C37.38989258 9.38111328 37.38989258 10.37111328 37.38989258 11.39111328 C36.72989258 11.39111328 36.06989258 11.39111328 35.38989258 11.39111328 C35.38989258 12.05111328 35.38989258 12.71111328 35.38989258 13.39111328 C29.3346349 14.7787765 26.06978632 13.88229475 20.38989258 11.39111328 C20.38989258 10.73111328 20.38989258 10.07111328 20.38989258 9.39111328 C9.34305962 7.39670236 -1.3009633 7.14739515 -12.48510742 7.26611328 C-14.1556749 7.27617499 -15.82624833 7.28529513 -17.49682617 7.29345703 C-21.5347372 7.3151907 -25.57235394 7.34953971 -29.61010742 7.39111328 C-30.27010742 6.07111328 -30.93010742 4.75111328 -31.61010742 3.39111328 C-20.97228641 0.77119551 -10.93177991 -0.08558455 0 0 Z " fill="#214A90" transform="translate(241.610107421875,137.60888671875)"/>
<path d="M0 0 C10.92187588 1.83642161 20.78014022 5.22318533 30.6875 10.125 C31.39535645 10.47385254 32.10321289 10.82270508 32.83251953 11.18212891 C37.87315893 13.74631786 37.87315893 13.74631786 39 16 C33.88634986 14.9318153 28.92772031 13.76892524 24 12 C24 12.66 24 13.32 24 14 C24.66 14.33 25.32 14.66 26 15 C25.01 16.485 25.01 16.485 24 18 C25.32 17.67 26.64 17.34 28 17 C28.33 18.32 28.66 19.64 29 21 C31.64 21 34.28 21 37 21 C36.67 22.32 36.34 23.64 36 25 C40.03110882 27.87228012 40.03110882 27.87228012 44.5625 29.75 C48.33381877 31.68400963 50.45185561 35.09277845 52 39 C51.6328125 41.2578125 51.6328125 41.2578125 51 43 C50.28457031 42.23816406 49.56914062 41.47632813 48.83203125 40.69140625 C38.29513886 29.68175051 26.97234066 22.14456782 13.23828125 15.62890625 C10 14 10 14 8 12 C9.98 12 11.96 12 14 12 C14 11.34 14 10.68 14 10 C14.66 10 15.32 10 16 10 C16 9.01 16 8.02 16 7 C13.03 6.505 13.03 6.505 10 6 C10 5.34 10 4.68 10 4 C9.01 4.33 8.02 4.66 7 5 C6.34 4.67 5.68 4.34 5 4 C5 3.34 5 2.68 5 2 C3.35 1.67 1.7 1.34 0 1 C0 0.67 0 0.34 0 0 Z " fill="#355185" transform="translate(263,139)"/>
<path d="M0 0 C-3.46741134 2.95749791 -6.86873527 5.07848152 -11 7 C-11 7.66 -11 8.32 -11 9 C-12.90625 10.48046875 -12.90625 10.48046875 -15.5 12.1875 C-23.67266477 17.78537306 -29.87017505 23.75406255 -36.01953125 31.546875 C-39.11117903 35.37637166 -39.11117903 35.37637166 -41 37 C-41.66 37 -42.32 37 -43 37 C-41.95317566 26.15109325 -31.55988363 17.97876916 -23.61425781 11.32958984 C-23.08155273 10.8908252 -22.54884766 10.45206055 -22 10 C-21.3925293 9.49807129 -20.78505859 8.99614258 -20.15917969 8.47900391 C-18.21067517 6.8943179 -16.23697837 5.34858524 -14.25 3.8125 C-13.63624512 3.31814453 -13.02249023 2.82378906 -12.39013672 2.31445312 C-8.01039044 -0.96652091 -5.51954356 -1.45064927 0 0 Z " fill="#514F5B" transform="translate(185,154)"/>
<path d="M0 0 C1.76171875 0.09765625 1.76171875 0.09765625 4 1 C5.46712506 3.1523691 6.64716062 5.13392216 7.8125 7.4375 C8.13669922 8.03626953 8.46089844 8.63503906 8.79492188 9.25195312 C9.60359477 10.79830194 10.31008237 12.39714 11 14 C10.67 14.66 10.34 15.32 10 16 C9.773125 15.21625 9.54625 14.4325 9.3125 13.625 C8.21875 10.78125 8.21875 10.78125 5.375 9.6875 C4.59125 9.460625 3.8075 9.23375 3 9 C2.67 9.99 2.34 10.98 2 12 C0.66666667 12.66666667 -0.66666667 13.33333333 -2 14 C-5.54573544 17.12362408 -7.44947735 19.56993528 -9 24 C-10.7002418 27.10478937 -12.3707287 29.62113549 -15 32 C-13.68 32.33 -12.36 32.66 -11 33 C-12.32 34.32 -13.64 35.64 -15 37 C-14.67 37.99 -14.34 38.98 -14 40 C-15.98 39.67 -17.96 39.34 -20 39 C-20.33 39.99 -20.66 40.98 -21 42 C-21.33 41.34 -21.66 40.68 -22 40 C-21.06298828 37.82373047 -21.06298828 37.82373047 -19.5703125 35.1171875 C-19.02592529 34.12138672 -18.48153809 33.12558594 -17.9206543 32.09960938 C-17.32808838 31.03548828 -16.73552246 29.97136719 -16.125 28.875 C-15.23711792 27.25948242 -15.23711792 27.25948242 -14.33129883 25.61132812 C-12.56379428 22.4021197 -10.78448139 19.19979471 -9 16 C-8.50387207 15.10958008 -8.00774414 14.21916016 -7.49658203 13.30175781 C-5.01581836 8.85746217 -2.51753003 4.42356697 0 0 Z " fill="#20593B" transform="translate(235,196)"/>
<path d="M0 0 C3.76607955 1.25535985 4.26441793 2.52883585 6 6 C6 6.99 6 7.98 6 9 C3.69 9.99 1.38 10.98 -1 12 C-1.495 11.505 -1.495 11.505 -2 11 C-6.36163618 10.68559152 -10.72893714 10.64325465 -15.1003418 10.5949707 C-16.569982 10.5733989 -18.03949399 10.53930408 -19.50854492 10.49243164 C-21.62737346 10.42542086 -23.74354264 10.39797641 -25.86328125 10.37890625 C-27.77040894 10.34132202 -27.77040894 10.34132202 -29.71606445 10.30297852 C-33.27272633 10.6877192 -33.27272633 10.6877192 -35.30541992 13.98413086 C-35.86463135 14.97936768 -36.42384277 15.97460449 -37 17 C-39.25 17.875 -39.25 17.875 -41 18 C-39.52835191 13.8303304 -37.89195092 10.36933589 -35 7 C-31.90136014 6.45186373 -29.59839431 6.29301753 -26.515625 6.4140625 C-25.29223419 6.42679703 -25.29223419 6.42679703 -24.04412842 6.43978882 C-21.44472902 6.47331881 -18.84845779 6.54858891 -16.25 6.625 C-14.48572196 6.65510051 -12.72139518 6.68247618 -10.95703125 6.70703125 C-6.63681959 6.77310776 -2.31893967 6.8766198 2 7 C1.34 4.69 0.68 2.38 0 0 Z " fill="#27573D" transform="translate(258,292)"/>
<path d="M0 0 C4.56535579 0.48914526 6.69793332 2.13367457 10 5.25 C11.30517578 6.47396484 11.30517578 6.47396484 12.63671875 7.72265625 C13.41660156 8.47417969 14.19648438 9.22570312 15 10 C15.928125 10.886875 16.85625 11.77375 17.8125 12.6875 C20.34403328 15.36369233 22.6746841 18.14318332 25 21 C24.34 21.33 23.68 21.66 23 22 C23.33 23.32 23.66 24.64 24 26 C23.34 26 22.68 26 22 26 C22.66 27.65 23.32 29.3 24 31 C23.34 31 22.68 31 22 31 C21.6596875 30.32195312 21.319375 29.64390625 20.96875 28.9453125 C15.93562468 19.28064102 10.08913262 11.21976341 1.46875 4.47265625 C0 3 0 3 0 0 Z " fill="#2F4975" transform="translate(280,187)"/>
<path d="M0 0 C6.40603527 2.18151471 10.91747256 6.67734267 16 11 C16.71800781 11.58136719 17.43601562 12.16273438 18.17578125 12.76171875 C26.98759882 20.05486636 34.84197958 29.77413434 40 40 C39.505 40.99 39.505 40.99 39 42 C38.34 40.35 37.68 38.7 37 37 C36.01 37.33 35.02 37.66 34 38 C30 31.25 30 31.25 30 29 C29.401875 28.7525 28.80375 28.505 28.1875 28.25 C25.68373081 26.81927475 24.51927612 25.4308418 23 23 C23 22.34 23 21.68 23 21 C22.34 21 21.68 21 21 21 C19.375 19.625 19.375 19.625 18 18 C18 17.34 18 16.68 18 16 C17.195625 15.6596875 17.195625 15.6596875 16.375 15.3125 C12.55153791 13.19953411 9.28542176 10.38063819 6.3125 7.1875 C4.92422799 5.66454334 4.92422799 5.66454334 2 6 C1.34 4.02 0.68 2.04 0 0 Z " fill="#334E7E" transform="translate(302,155)"/>
<path d="M0 0 C0 0.33 0 0.66 0 1 C-8.25 1 -16.5 1 -25 1 C-25.33 1.99 -25.66 2.98 -26 4 C-24.31583984 3.96519531 -24.31583984 3.96519531 -22.59765625 3.9296875 C-14.77013576 3.81787826 -7.58473338 3.79353211 0 6 C0 6.33 0 6.66 0 7 C-13.53 7 -27.06 7 -41 7 C-41.66 5.68 -42.32 4.36 -43 3 C-28.8830691 -1.03340883 -14.55115699 -0.29702456 0 0 Z " fill="#183B76" transform="translate(253,138)"/>
<path d="M0 0 C0 0.99 0 1.98 0 3 C0.33 3.99 0.66 4.98 1 6 C0.03125 8.35327148 0.03125 8.35327148 -1.5 11.12109375 C-2.05469971 12.13429688 -2.60939941 13.1475 -3.1809082 14.19140625 C-4.08135864 15.79822266 -4.08135864 15.79822266 -5 17.4375 C-5.59707764 18.5203125 -6.19415527 19.603125 -6.80932617 20.71875 C-10.76780775 27.87274905 -14.77727012 34.9979461 -19 42 C-19.33 41.34 -19.66 40.68 -20 40 C-19.01965496 37.99029266 -18.01446612 35.99270131 -17 34 C-16.499492 32.52791764 -16.02136017 31.04809149 -15.5625 29.5625 C-14.20750923 25.31013534 -12.34039034 21.79304641 -10 18 C-9.34 18 -8.68 18 -8 18 C-7.53963371 16.64652311 -7.08183463 15.292173 -6.625 13.9375 C-6.34914062 13.12023437 -6.07328125 12.30296875 -5.7890625 11.4609375 C-5.10829571 9.33775393 -4.53824656 7.22460906 -4 5.0625 C-3 2 -3 2 0 0 Z " fill="#25573C" transform="translate(200,314)"/>
<path d="M0 0 C0.33 0.66 0.66 1.32 1 2 C0.30371768 4.04771637 -0.48312083 6.06498115 -1.3125 8.0625 C-2.94102761 12.0848742 -4.26606604 15.7767513 -4.9375 20.0625 C-5.61559894 23.71226781 -5.80294733 23.85522661 -9.0625 26.25 C-10.031875 26.8275 -11.00125 27.405 -12 28 C-12.96219702 30.62766389 -12.96219702 30.62766389 -13 33 C-13.99 33 -14.98 33 -16 33 C-15.45124384 28.29907684 -14.13973492 24.9036828 -11.875 20.76171875 C-10.93914062 19.03791992 -10.93914062 19.03791992 -9.984375 17.27929688 C-9.32294722 16.08201437 -8.66148853 14.88474894 -8 13.6875 C-7.33778393 12.47111534 -6.6763181 11.25432193 -6.015625 10.03710938 C-1.17985248 1.17985248 -1.17985248 1.17985248 0 0 Z " fill="#26583F" transform="translate(172,310)"/>
<path d="M0 0 C0.99 0.33 1.98 0.66 3 1 C3 2.32 3 3.64 3 5 C2.01 5.99 1.02 6.98 0 8 C17.16 8.33 34.32 8.66 52 9 C52 9.33 52 9.66 52 10 C50.19196899 10.03758423 50.19196899 10.03758423 48.34741211 10.07592773 C43.85398646 10.17045665 39.36069909 10.27056439 34.86743164 10.37231445 C32.92670946 10.41549192 30.98595348 10.45717831 29.04516602 10.49731445 C26.24745523 10.55543566 23.44991186 10.61900716 20.65234375 10.68359375 C19.7916478 10.70030624 18.93095184 10.71701874 18.04417419 10.73423767 C13.28359095 10.84998596 8.71477446 11.26907404 4 12 C1.26697646 11.86400685 -1.28867319 11.42810423 -4 11 C-3.39301257 6.87248551 -1.96189209 3.6678852 0 0 Z " fill="#144B30" transform="translate(213,315)"/>
<path d="M0 0 C1.65 1.32 3.3 2.64 5 4 C6.65 2.68 8.3 1.36 10 0 C9.51421457 3.12290635 9.0013988 5.99580359 8 9 C8.30806453 11.07647876 8.30806453 11.07647876 8.9375 13.1875 C9.288125 14.445625 9.63875 15.70375 10 17 C10.66 17 11.32 17 12 17 C12.28875 17.804375 12.5775 18.60875 12.875 19.4375 C13.73262568 22.1326468 13.73262568 22.1326468 16 23 C14.25 27.875 14.25 27.875 12 29 C11.896875 27.948125 11.79375 26.89625 11.6875 25.8125 C11.00089857 22.00498299 10.06988747 20.18444226 8 17 C5 10.55555556 5 10.55555556 5 7 C4.01 6.67 3.02 6.34 2 6 C0.8125 2.9375 0.8125 2.9375 0 0 Z " fill="#1C567E" transform="translate(305,319)"/>
<path d="M0 0 C1.43088528 2.86177057 0.59991697 4.93375773 0 8 C-0.66 8 -1.32 8 -2 8 C-2.1546875 9.3921875 -2.1546875 9.3921875 -2.3125 10.8125 C-3.06492984 14.30103836 -3.62417252 14.62417252 -6 17 C-6.74386068 19.30988315 -7.42190703 21.64315944 -8 24 C-9.175625 24.0928125 -9.175625 24.0928125 -10.375 24.1875 C-11.24125 24.455625 -12.1075 24.72375 -13 25 C-14.37466625 27.47636012 -14.37466625 27.47636012 -15 30 C-15.33 29.34 -15.66 28.68 -16 28 C-15.07543945 25.84863281 -15.07543945 25.84863281 -13.61328125 23.203125 C-13.08669922 22.2440625 -12.56011719 21.285 -12.01757812 20.296875 C-11.45490234 19.29140625 -10.89222656 18.2859375 -10.3125 17.25 C-9.76916016 16.26 -9.22582031 15.27 -8.66601562 14.25 C-5.96104632 9.35685118 -3.20373897 4.58345138 0 0 Z " fill="#305C47" transform="translate(190,278)"/>
<path d="M0 0 C0.94875 0.309375 1.8975 0.61875 2.875 0.9375 C-0.59241134 3.89499791 -3.99373527 6.01598152 -8.125 7.9375 C-8.125 8.5975 -8.125 9.2575 -8.125 9.9375 C-9.7028125 10.5871875 -9.7028125 10.5871875 -11.3125 11.25 C-14.41960982 12.57620541 -17.27018195 14.1207976 -20.125 15.9375 C-16.95215786 8.79860519 -8.72146101 -1.29667343 0 0 Z " fill="#2C4163" transform="translate(182.125,153.0625)"/>
<path d="M0 0 C2.87558159 2.87558159 3.47566771 6.37229939 4.5625 10.1875 C4.78357422 10.93064453 5.00464844 11.67378906 5.23242188 12.43945312 C7.41793561 19.97320288 8.14956992 27.12129989 8.0625 34.9375 C8.05798828 35.71673828 8.05347656 36.49597656 8.04882812 37.29882812 C8.03716908 39.19925268 8.01923877 41.09963706 8 43 C7.67 43 7.34 43 7 43 C7 38.71 7 34.42 7 30 C6.34 30 5.68 30 5 30 C4.95101563 29.07316406 4.90203125 28.14632812 4.8515625 27.19140625 C4.77679688 25.99386719 4.70203125 24.79632813 4.625 23.5625 C4.55539062 22.36753906 4.48578125 21.17257813 4.4140625 19.94140625 C4.27742188 18.97074219 4.14078125 18.00007813 4 17 C3.34 16.67 2.68 16.34 2 16 C1.52402634 13.29400158 1.15906371 10.66404596 0.875 7.9375 C0.78863281 7.17888672 0.70226562 6.42027344 0.61328125 5.63867188 C0.40060483 3.76003014 0.19924541 1.88011364 0 0 Z " fill="#354A76" transform="translate(314,224)"/>
<path d="M0 0 C0.86818359 -0.01224609 1.73636719 -0.02449219 2.63085938 -0.03710938 C3.47068359 -0.03904297 4.31050781 -0.04097656 5.17578125 -0.04296875 C5.94446533 -0.04707764 6.71314941 -0.05118652 7.50512695 -0.05541992 C9.94466738 0.2161253 11.57159011 0.97364065 13.6875 2.1875 C11.6875 4.1875 11.6875 4.1875 9.34912109 4.41455078 C8.39602051 4.40407715 7.44291992 4.39360352 6.4609375 4.3828125 C4.9140625 4.37314453 4.9140625 4.37314453 3.3359375 4.36328125 C2.25570312 4.34652344 1.17546875 4.32976562 0.0625 4.3125 C-1.02546875 4.30347656 -2.1134375 4.29445312 -3.234375 4.28515625 C-5.92730152 4.26153409 -8.61979255 4.22859556 -11.3125 4.1875 C-9.39544755 -1.56365735 -5.43025219 0.00397821 0 0 Z " fill="#265195" transform="translate(237.3125,138.8125)"/>
<path d="M0 0 C0.66 2.64 1.32 5.28 2 8 C2.66 8 3.32 8 4 8 C4.5345256 9.24420647 5.05208611 10.49570936 5.5625 11.75 C5.85253906 12.44609375 6.14257812 13.1421875 6.44140625 13.859375 C7 16 7 16 6 20 C3.03 15.05 0.06 10.1 -3 5 C-4.65 6.65 -6.3 8.3 -8 10 C-7.875 6.6875 -7.875 6.6875 -7 3 C-2.35483871 0 -2.35483871 0 0 0 Z " fill="#234F36" transform="translate(240,252)"/>
<path d="M0 0 C0.33 0.66 0.66 1.32 1 2 C-0.24687592 2.96239452 -1.49764969 3.91974009 -2.75 4.875 C-3.79414063 5.67550781 -3.79414063 5.67550781 -4.859375 6.4921875 C-6.84722603 7.89238914 -8.79843386 8.97855265 -11 10 C-11.33 9.67 -11.66 9.34 -12 9 C-14.64 11.64 -17.28 14.28 -20 17 C-20.33 16.01 -20.66 15.02 -21 14 C-16.52647956 9.40410362 -11.91935902 5.11619836 -7 1 C-6.34 1.33 -5.68 1.66 -5 2 C-5.33 2.66 -5.66 3.32 -6 4 C-4.02 2.68 -2.04 1.36 0 0 Z " fill="#4A556F" transform="translate(170,163)"/>
<path d="M0 0 C0.33 0 0.66 0 1 0 C1.0750148 4.08926849 1.12900317 8.17826207 1.16479492 12.26806641 C1.17973947 13.65485627 1.20010278 15.04160007 1.22631836 16.42822266 C1.3790891 24.72577058 1.09696458 32.19066805 -2 40 C-2.144375 39.38125 -2.28875 38.7625 -2.4375 38.125 C-2.93152225 35.96741678 -2.93152225 35.96741678 -4 34 C-3.75290429 31.94938967 -3.43007496 29.90747329 -3.0625 27.875 C-2.77052734 26.23144531 -2.77052734 26.23144531 -2.47265625 24.5546875 C-2.31667969 23.71164062 -2.16070312 22.86859375 -2 22 C-1.34 22 -0.68 22 0 22 C0 14.74 0 7.48 0 0 Z " fill="#243E72" transform="translate(341,239)"/>
<path d="M0 0 C7.48765844 -0.3682455 7.48765844 -0.3682455 10 1.4375 C11.2379319 3.37176859 11 3.68854439 11 6 C9.35 6 7.7 6 6 6 C6.99 6.33 7.98 6.66 9 7 C8.67 7.66 8.34 8.32 8 9 C2.37865749 7.53356282 2.37865749 7.53356282 0.625 5.0625 C0 3 0 3 0 0 Z " fill="#2E5392" transform="translate(260,142)"/>
<path d="M0 0 C0.66 1.32 1.32 2.64 2 4 C0.68 5.32 -0.64 6.64 -2 8 C-0.68 8.33 0.64 8.66 2 9 C0.68 10.32 -0.64 11.64 -2 13 C-1.67 13.99 -1.34 14.98 -1 16 C-3.97 15.505 -3.97 15.505 -7 15 C-7.33 15.99 -7.66 16.98 -8 18 C-8.33 17.34 -8.66 16.68 -9 16 C-8.28735352 14.30419922 -8.28735352 14.30419922 -7.12890625 12.3046875 C-6.71962891 11.58925781 -6.31035156 10.87382812 -5.88867188 10.13671875 C-5.45103516 9.39035156 -5.01339844 8.64398438 -4.5625 7.875 C-4.12873047 7.12089844 -3.69496094 6.36679688 -3.24804688 5.58984375 C-2.17251034 3.72242866 -1.08715861 1.86067303 0 0 Z " fill="#2E6148" transform="translate(222,220)"/>
<path d="M0 0 C0.33 0 0.66 0 1 0 C1.19907807 3.49944037 1.38213327 6.9995493 1.5625 10.5 C1.61857422 11.48226563 1.67464844 12.46453125 1.73242188 13.4765625 C2.18080346 22.44419424 1.42808706 29.65335325 -2 38 C-4 35 -4 35 -3.79296875 32.94921875 C-3.59316406 32.20285156 -3.39335937 31.45648438 -3.1875 30.6875 C-1.35965728 23.65827935 -0.75223576 16.85876293 -0.4375 9.625 C-0.39431641 8.69816406 -0.35113281 7.77132812 -0.30664062 6.81640625 C-0.20123814 4.54439706 -0.09911394 2.27229075 0 0 Z " fill="#143570" transform="translate(356,247)"/>
<path d="M0 0 C0.33 0.66 0.66 1.32 1 2 C0.0625 4.125 0.0625 4.125 -1 6 C-0.67 5.67 -0.34 5.34 0 5 C0.66 5 1.32 5 2 5 C0.68544658 7.93246533 -0.74873617 9.74873617 -3 12 C-3.515625 12.86625 -4.03125 13.7325 -4.5625 14.625 C-6 17 -6 17 -8 18 C-8.72159424 19.64363134 -9.39351421 21.31050386 -10 23 C-10.66 23 -11.32 23 -12 23 C-10.46688715 17.48431813 -7.81247556 12.97965148 -4.875 8.125 C-4.40707031 7.34125 -3.93914062 6.5575 -3.45703125 5.75 C-2.30981892 3.83017528 -1.1573993 1.91369439 0 0 Z " fill="#38624B" transform="translate(210,242)"/>
<path d="M0 0 C0.33 1.32 0.66 2.64 1 4 C1.66 4 2.32 4 3 4 C3 4.99 3 5.98 3 7 C3.66 7 4.32 7 5 7 C5.99 8.98 6.98 10.96 8 13 C9.32 13 10.64 13 12 13 C11.34 14.65 10.68 16.3 10 18 C8.203125 17.82421875 8.203125 17.82421875 6 17 C4.296875 14.70703125 4.296875 14.70703125 2.75 11.8125 C1.96882813 10.39904297 1.96882813 10.39904297 1.171875 8.95703125 C-0.09993919 5.74782011 -0.22289402 3.41939684 0 0 Z " fill="#233D68" transform="translate(298,288)"/>
<path d="M0 0 C0 4.18678194 -2.02541079 7.11522797 -4 10.6875 C-4.57234375 11.7403418 -4.57234375 11.7403418 -5.15625 12.81445312 C-6.09859522 14.54601247 -7.04857268 16.27341426 -8 18 C-8.66 16.68 -9.32 15.36 -10 14 C-9.34 13.67 -8.68 13.34 -8 13 C-7.7834375 11.576875 -7.7834375 11.576875 -7.5625 10.125 C-6.9801943 6.88996834 -6.51806487 5.97065946 -4 4 C-4.33 3.34 -4.66 2.68 -5 2 C-3.35 1.34 -1.7 0.68 0 0 Z " fill="#315C45" transform="translate(224,275)"/>
<path d="M0 0 C3.78639125 1.26213042 4.04104596 2.65345351 6 6 C6.99 6.66 7.98 7.32 9 8 C10.1875 11.125 10.1875 11.125 11 14 C11.66 14 12.32 14 13 14 C13.33 15.98 13.66 17.96 14 20 C13.1646875 18.9171875 13.1646875 18.9171875 12.3125 17.8125 C10.07441142 14.98537778 10.07441142 14.98537778 7.5625 12.625 C0 4.87804878 0 4.87804878 0 0 Z " fill="#284178" transform="translate(315,180)"/>
<path d="M0 0 C0.99 0.33 1.98 0.66 3 1 C3 2.32 3 3.64 3 5 C1.68 6.32 0.36 7.64 -1 9 C2.96 9.33 6.92 9.66 11 10 C6.80866878 12.09566561 5.68835147 12.15337517 1.25 11.625 C-0.22726563 11.45871094 -0.22726563 11.45871094 -1.734375 11.2890625 C-2.48203125 11.19367188 -3.2296875 11.09828125 -4 11 C-3.27758802 6.88295306 -1.97646289 3.69512628 0 0 Z " fill="#294E3C" transform="translate(213,315)"/>
<path d="M0 0 C0.33 0 0.66 0 1 0 C0.53414976 5.74548634 -1.07098434 9.55497444 -4.0625 14.4375 C-4.62807617 15.39172852 -4.62807617 15.39172852 -5.20507812 16.36523438 C-6.12640502 17.91632902 -7.06176593 19.45907343 -8 21 C-8.33 20.34 -8.66 19.68 -9 19 C-8.01965496 16.99029266 -7.01446612 14.99270131 -6 13 C-5.47871467 11.46539982 -4.97949787 9.92316598 -4.5 8.375 C-3.45127009 5.10185875 -2.42098849 2.53103342 0 0 Z " fill="#2F583E" transform="translate(189,335)"/>
<path d="M0 0 C4.1724106 0.51881113 6.25416821 1.71151274 9.3125 4.5625 C10.00988281 5.20316406 10.70726562 5.84382812 11.42578125 6.50390625 C11.94527344 6.99761719 12.46476562 7.49132812 13 8 C7.36658203 8 4.12651308 7.00861271 0 3 C0 2.01 0 1.02 0 0 Z " fill="#474753" transform="translate(280,187)"/>
<path d="M0 0 C2.13209391 2.75290949 4.01356503 5.54416744 5.75 8.5625 C6.19859375 9.32691406 6.6471875 10.09132813 7.109375 10.87890625 C8 13 8 13 7 16 C6.34 15.67 5.68 15.34 5 15 C5.33 14.01 5.66 13.02 6 12 C5.1028125 11.8453125 5.1028125 11.8453125 4.1875 11.6875 C1.71756736 10.91123545 0.67748765 9.92911079 -1 8 C-0.34 7.01 0.32 6.02 1 5 C0.6878236 2.35367713 0.6878236 2.35367713 0 0 Z " fill="#2C5C43" transform="translate(291,293)"/>
<path d="M0 0 C1.67667436 0.64108137 3.34089996 1.31471955 5 2 C5.99 2.37125 6.98 2.7425 8 3.125 C11.93094392 5.58183995 14.18116979 8.73796503 16 13 C15.67 13.66 15.34 14.32 15 15 C10 10 5 5 0 0 Z " fill="#1C3D7B" transform="translate(299,165)"/>
<path d="M0 0 C0.66 0 1.32 0 2 0 C2.2475 0.5775 2.495 1.155 2.75 1.75 C3.90996305 4.09449306 3.90996305 4.09449306 5.9375 5.875 C8.38126609 8.39281961 9.68797662 10.75446849 11 14 C10.67 14.99 10.34 15.98 10 17 C9.896875 16.360625 9.79375 15.72125 9.6875 15.0625 C9.460625 14.381875 9.23375 13.70125 9 13 C8.01 12.67 7.02 12.34 6 12 C5.525625 11.030625 5.05125 10.06125 4.5625 9.0625 C2.94789981 5.89788363 2.26336918 5.12529972 -1 4 C-0.67 2.68 -0.34 1.36 0 0 Z " fill="#2A457B" transform="translate(337,192)"/>
<path d="M0 0 C1 2 1 2 0.21484375 4.86328125 C-3.99416609 16.22889499 -3.99416609 16.22889499 -10 20 C-8.56347895 15.08558588 -6.45840385 10.99761642 -3.875 6.625 C-3.50246094 5.98433594 -3.12992188 5.34367187 -2.74609375 4.68359375 C-1.83565998 3.11951523 -0.91851809 1.55934466 0 0 Z " fill="#3B624E" transform="translate(172,310)"/>
<path d="M0 0 C1.76171875 0.09765625 1.76171875 0.09765625 4 1 C5.46712506 3.1523691 6.64716062 5.13392216 7.8125 7.4375 C8.13669922 8.03626953 8.46089844 8.63503906 8.79492188 9.25195312 C9.60359477 10.79830194 10.31008237 12.39714 11 14 C10.67 14.66 10.34 15.32 10 16 C9.7525 15.195625 9.505 14.39125 9.25 13.5625 C8.27761141 10.828919 8.27761141 10.828919 5.875 10.1875 C5.25625 10.125625 4.6375 10.06375 4 10 C3.67 8.02 3.34 6.04 3 4 C1.68 4 0.36 4 -1 4 C-0.67 2.68 -0.34 1.36 0 0 Z " fill="#365B48" transform="translate(235,196)"/>
<path d="M0 0 C0.66 0.33 1.32 0.66 2 1 C0.9531553 2.63512918 -0.11317851 4.25779111 -1.1875 5.875 C-1.77917969 6.77992188 -2.37085938 7.68484375 -2.98046875 8.6171875 C-5.18739236 11.22110124 -6.77086649 12.02958682 -10 13 C-8.60484422 10.01517153 -6.97667625 7.44642111 -5 4.8125 C-4.484375 4.11769531 -3.96875 3.42289062 -3.4375 2.70703125 C-2 1 -2 1 0 0 Z " fill="#2E4373" transform="translate(325,306)"/>
<path d="M0 0 C4.19360449 0.67097672 7.40334352 2.8558394 11 5 C10.01 5.99 9.02 6.98 8 8 C1.42857143 4 1.42857143 4 0 0 Z " fill="#2E3D5C" transform="translate(287,194)"/>
<path d="M0 0 C2.33300933 0.03888349 4.66709801 0.0448635 7 0 C6.38125 0.28875 5.7625 0.5775 5.125 0.875 C2.86674235 1.93720042 2.86674235 1.93720042 1 4 C-2.625 4.125 -2.625 4.125 -6 4 C-6 3.34 -6 2.68 -6 2 C-6.99 1.67 -7.98 1.34 -9 1 C-5.41695412 -0.69199389 -3.7533606 -1.10392959 0 0 Z " fill="#1D3E73" transform="translate(204,145)"/>
<path d="M0 0 C6.70880162 1.04481337 12.0564116 2.69800644 18 6 C18 6.33 18 6.66 18 7 C15.36 6.67 12.72 6.34 10 6 C10 5.34 10 4.68 10 4 C9.01 4.33 8.02 4.66 7 5 C6.34 4.67 5.68 4.34 5 4 C5 3.34 5 2.68 5 2 C3.35 1.67 1.7 1.34 0 1 C0 0.67 0 0.34 0 0 Z " fill="#2B477A" transform="translate(263,139)"/>
<path d="M0 0 C4.75 0.875 4.75 0.875 7 2 C7 2.99 7 3.98 7 5 C8.423125 4.938125 8.423125 4.938125 9.875 4.875 C13 5 13 5 15 7 C14.67 7.66 14.34 8.32 14 9 C8.40440609 7.60110152 4.29704147 4.74082545 0 1 C0 0.67 0 0.34 0 0 Z " fill="#365543" transform="translate(165,350)"/>
<path d="M0 0 C1.65 1.32 3.3 2.64 5 4 C6.65 2.68 8.3 1.36 10 0 C9.67 1.98 9.34 3.96 9 6 C7.02 6.33 5.04 6.66 3 7 C0 2.25 0 2.25 0 0 Z " fill="#37546D" transform="translate(305,319)"/>
<path d="M0 0 C0.62890625 1.83984375 0.62890625 1.83984375 1 4 C-2.13538129 7.89547373 -5.45929827 9.99364342 -10 12 C-8.52278578 8.54798361 -6.56205999 6.35038064 -3.875 3.75 C-3.15054688 3.04359375 -2.42609375 2.3371875 -1.6796875 1.609375 C-1.12539062 1.07828125 -0.57109375 0.5471875 0 0 Z " fill="#3F404E" transform="translate(159,170)"/>
<path d="M0 0 C2.31 0.33 4.62 0.66 7 1 C-0.2 7 -0.2 7 -5 7 C-5 6.34 -5 5.68 -5 5 C-3.35 4.34 -1.7 3.68 0 3 C0 2.01 0 1.02 0 0 Z " fill="#1C3565" transform="translate(178,153)"/>
<path d="M0 0 C0.99 0.33 1.98 0.66 3 1 C2.33333333 2.33333333 1.66666667 3.66666667 1 5 C0.566875 6.0828125 0.566875 6.0828125 0.125 7.1875 C-1 9 -1 9 -3.125 9.75 C-4.053125 9.87375 -4.053125 9.87375 -5 10 C-3.66511872 6.40608886 -2.03977277 3.24509304 0 0 Z " fill="#26563E" transform="translate(222,300)"/>
<path d="M0 0 C2.81158409 2.49824489 4.44837831 5.278476 6.25 8.5625 C6.79140625 9.53316406 7.3328125 10.50382812 7.890625 11.50390625 C8.25671875 12.32761719 8.6228125 13.15132813 9 14 C8.67 14.66 8.34 15.32 8 16 C7.401875 14.906875 6.80375 13.81375 6.1875 12.6875 C5.00114282 10.58402982 4.09226498 9.08543054 2.3125 7.4375 C0.30543572 5.23928674 0.32003326 2.88029938 0 0 Z " fill="#365D4B" transform="translate(280,274)"/>
<path d="M0 0 C0.99 0.33 1.98 0.66 3 1 C2.85892253 2.45880109 2.71197585 3.91703551 2.5625 5.375 C2.48128906 6.18710937 2.40007812 6.99921875 2.31640625 7.8359375 C2 10 2 10 1 12 C-2.09349221 7.54537122 -2.09349221 7.54537122 -1.625 4.8125 C-1.41875 4.214375 -1.2125 3.61625 -1 3 C-1.33 2.34 -1.66 1.68 -2 1 C-1.34 0.67 -0.68 0.34 0 0 Z " fill="#276041" transform="translate(283,329)"/>
<path d="M0 0 C2.14909962 2.76854598 4.01778828 5.57834526 5.75 8.625 C6.19859375 9.40101563 6.6471875 10.17703125 7.109375 10.9765625 C7.40328125 11.64429688 7.6971875 12.31203125 8 13 C7.67 13.66 7.34 14.32 7 15 C4 10.25 4 10.25 4 8 C2.68 7.67 1.36 7.34 0 7 C0 4.69 0 2.38 0 0 Z " fill="#355844" transform="translate(267,250)"/>
<path d="M0 0 C0.66 0 1.32 0 2 0 C2.70173653 4.38585329 3.10834375 8.55790643 3 13 C2.01 13.495 2.01 13.495 1 14 C0.34 10.7 -0.32 7.4 -1 4 C-0.34 4 0.32 4 1 4 C0.67 2.68 0.34 1.36 0 0 Z " fill="#203C74" transform="translate(303,209)"/>
<path d="M0 0 C3.29680965 0.65784963 5.84117922 1.89420573 8.75 3.5625 C9.94882812 4.24505859 9.94882812 4.24505859 11.171875 4.94140625 C11.77515625 5.29074219 12.3784375 5.64007813 13 6 C11 7 11 7 9.08984375 6.546875 C8.37957031 6.28390625 7.66929687 6.0209375 6.9375 5.75 C6.22464844 5.49734375 5.51179688 5.2446875 4.77734375 4.984375 C3 4 3 4 2 1 C1.34 0.67 0.68 0.34 0 0 Z " fill="#3B547D" transform="translate(289,148)"/>
<path d="M0 0 C4.55384615 -0.36923077 4.55384615 -0.36923077 6.8125 1.5 C7.204375 1.995 7.59625 2.49 8 3 C7.01 3.33 6.02 3.66 5 4 C4.67 4.33 4.34 4.66 4 5 C2.67405895 5.36162029 1.34061543 5.69728039 0 6 C0 4 0 2 0 0 Z " fill="#26539C" transform="translate(287,151)"/>
<path d="M0 0 C2.31 0.33 4.62 0.66 7 1 C6.67 2.65 6.34 4.3 6 6 C5.67 5.34 5.34 4.68 5 4 C4.01 3.7834375 4.01 3.7834375 3 3.5625 C2.34 3.376875 1.68 3.19125 1 3 C0.67 2.01 0.34 1.02 0 0 Z M-2 2 C-1.34 2 -0.68 2 0 2 C0 2.66 0 3.32 0 4 C-0.66 4 -1.32 4 -2 4 C-2 3.34 -2 2.68 -2 2 Z " fill="#2850A0" transform="translate(279,147)"/>
<path d="M0 0 C-0.33 0.99 -0.66 1.98 -1 3 C-3.64 3.33 -6.28 3.66 -9 4 C-9.33 3.01 -9.66 2.02 -10 1 C-6.61981469 -0.04005702 -3.5219721 -0.08004482 0 0 Z " fill="#244F95" transform="translate(225,140)"/>
<path d="M0 0 C0.66 0.33 1.32 0.66 2 1 C2.99 0.67 3.98 0.34 5 0 C7.36522558 0.92203709 9.70401807 1.91698965 12 3 C11.01 4.485 11.01 4.485 10 6 C9.649375 5.505 9.29875 5.01 8.9375 4.5 C6.05625711 2.26936034 3.52990974 2.80019379 0 3 C0 2.01 0 1.02 0 0 Z " fill="#1D4687" transform="translate(291,153)"/>
<path d="M0 0 C2.97 0.99 5.94 1.98 9 3 C8.01 3.99 7.02 4.98 6 6 C3.9375 6 3.9375 6 2 5 C0.75 2.4375 0.75 2.4375 0 0 Z " fill="#2E4F3E" transform="translate(293,356)"/>
<path d="M0 0 C0.66 0 1.32 0 2 0 C1.34 2.64 0.68 5.28 0 8 C-0.99 8 -1.98 8 -3 8 C-3.33 7.01 -3.66 6.02 -4 5 C-2 3 -2 3 0 2 C0 1.34 0 0.68 0 0 Z " fill="#224385" transform="translate(341,312)"/>
<path d="M0 0 C-1.5830577 4.2742558 -4.50568404 6.26531794 -8 9 C-7.53918323 4.85264908 -4.48412936 0 0 0 Z " fill="#5B5B68" transform="translate(157,171)"/>
<path d="M0 0 C3.76607955 1.25535985 4.26441793 2.52883585 6 6 C6 6.99 6 7.98 6 9 C4.02 9 2.04 9 0 9 C1.32 8.34 2.64 7.68 4 7 C3.67 6.01 3.34 5.02 3 4 C2.34 4 1.68 4 1 4 C0.67 2.68 0.34 1.36 0 0 Z " fill="#1B4E32" transform="translate(258,292)"/>
<path d="M0 0 C3.1744176 1.09462676 3.98914157 1.98177335 5.75 4.9375 C7 8 7 8 7 11 C3.18699218 7.7129243 1.77027754 4.60272162 0 0 Z " fill="#224683" transform="translate(307,169)"/>
<path d="M0 0 C2.64 0 5.28 0 8 0 C7.34 1.98 6.68 3.96 6 6 C3.21510722 4.60755361 1.87698471 2.44008012 0 0 Z " fill="#1E3E8B" transform="translate(292,160)"/>
<path d="M0 0 C0 0.33 0 0.66 0 1 C-9.56944444 2.44444444 -9.56944444 2.44444444 -14 0 C-8.97703996 -1.13016601 -5.02125926 -0.77916092 0 0 Z " fill="#1B4380" transform="translate(261,139)"/>
<path d="M0 0 C2 1.3125 2 1.3125 4 3 C4 3.99 4 4.98 4 6 C4.66 6 5.32 6 6 6 C5.625 7.9375 5.625 7.9375 5 10 C4.01 10.495 4.01 10.495 3 11 C2.87625 9.9275 2.7525 8.855 2.625 7.75 C2.10356064 4.62136385 1.59911746 2.66519576 0 0 Z " fill="#25555F" transform="translate(314,337)"/>
<path d="M0 0 C0.99 0.66 1.98 1.32 3 2 C2.67 2.66 2.34 3.32 2 4 C1.34 3.67 0.68 3.34 0 3 C-1.485 5.475 -1.485 5.475 -3 8 C-4.33332095 5.3333581 -3.67102033 3.83319697 -3 1 C-2.01 0.67 -1.02 0.34 0 0 Z " fill="#375A46" transform="translate(236,254)"/>
<path d="M0 0 C0.6875 1.75 0.6875 1.75 1 4 C-0.4375 6.25 -0.4375 6.25 -2 8 C-2.66 7.67 -3.32 7.34 -4 7 C-3.43628586 3.73045798 -2.50037734 2.17424117 0 0 Z " fill="#244B34" transform="translate(226,215)"/>
<path d="M0 0 C2.475 0.495 2.475 0.495 5 1 C5 2.65 5 4.3 5 6 C3.0625 5.25 3.0625 5.25 1 4 C0.25 1.875 0.25 1.875 0 0 Z " fill="#57565C" transform="translate(280,187)"/>
<path d="M0 0 C4.42857143 5.14285714 4.42857143 5.14285714 5 9 C4.34 9 3.68 9 3 9 C3 8.01 3 7.02 3 6 C2.01 6 1.02 6 0 6 C-1.125 2.25 -1.125 2.25 0 0 Z " fill="#2E5543" transform="translate(299,308)"/>
<path d="M0 0 C0.99 0 1.98 0 3 0 C1.92598892 2.91517292 1.22189824 4.77810176 -1 7 C-1.625 4.625 -1.625 4.625 -2 2 C-1.34 1.34 -0.68 0.68 0 0 Z " fill="#305D47" transform="translate(226,268)"/>
<path d="M0 0 C0.66 0.33 1.32 0.66 2 1 C1.67 2.65 1.34 4.3 1 6 C0.01 6 -0.98 6 -2 6 C-2 6.66 -2 7.32 -2 8 C-2.66 7.67 -3.32 7.34 -4 7 C-2.68 4.69 -1.36 2.38 0 0 Z " fill="#184F31" transform="translate(212,241)"/>
<path d="M0 0 C-1.0975223 2.99324263 -1.67682892 3.84610901 -4.625 5.25 C-5.40875 5.4975 -6.1925 5.745 -7 6 C-4.84615385 0 -4.84615385 0 0 0 Z " fill="#27563E" transform="translate(238,199)"/>
<path d="M0 0 C1.875 0.125 1.875 0.125 4 1 C5.25 4.0625 5.25 4.0625 6 7 C5.5875 6.505 5.175 6.01 4.75 5.5 C2.87797662 3.56613908 2.87797662 3.56613908 -1 4 C-0.67 2.68 -0.34 1.36 0 0 Z " fill="#475F53" transform="translate(235,196)"/>
<path d="M0 0 C0.66 0.33 1.32 0.66 2 1 C2.33 1.99 2.66 2.98 3 4 C0.36 4 -2.28 4 -5 4 C-3.36587557 2.29159719 -2.13093906 1.06546953 0 0 Z " fill="#2C4A78" transform="translate(184,150)"/>
<path d="M0 0 C1.65 0 3.3 0 5 0 C4.67 1.32 4.34 2.64 4 4 C2.68 3.67 1.36 3.34 0 3 C0 2.01 0 1.02 0 0 Z " fill="#1F539C" transform="translate(260,142)"/>
<path d="M0 0 C1 3 1 3 0.3125 5.625 C-1 8 -1 8 -3.125 8.8125 C-3.74375 8.874375 -4.3625 8.93625 -5 9 C-3.50163895 5.88801935 -1.80066242 2.9465385 0 0 Z " fill="#163A76" transform="translate(331,328)"/>
<path d="M0 0 C1.53445094 3.06890187 0.54984289 5.70094266 0 9 C-0.99 9.33 -1.98 9.66 -3 10 C-2.25 3.375 -2.25 3.375 0 0 Z " fill="#1B346F" transform="translate(316,283)"/>
<path d="M0 0 C0.99 0 1.98 0 3 0 C2.67 3.3 2.34 6.6 2 10 C0.0044484 6.00889681 -0.19546065 4.30013434 0 0 Z " fill="#254268" transform="translate(355,267)"/>
<path d="M0 0 C4.55737263 0.43820891 7.57653445 0.85041169 11 4 C9.35 4.33 7.7 4.66 6 5 C5.67 4.01 5.34 3.02 5 2 C3.35 1.67 1.7 1.34 0 1 C0 0.67 0 0.34 0 0 Z " fill="#17386E" transform="translate(264,147)"/>
<path d="M0 0 C0.33 0 0.66 0 1 0 C0.38461538 6.52307692 0.38461538 6.52307692 -1.5625 8.9375 C-2.036875 9.288125 -2.51125 9.63875 -3 10 C-2.25 2.25 -2.25 2.25 0 0 Z " fill="#355D45" transform="translate(189,335)"/>
<path d="M0 0 C0.33 0.66 0.66 1.32 1 2 C1.99 2.33 2.98 2.66 4 3 C2.824375 3.0928125 2.824375 3.0928125 1.625 3.1875 C0.75875 3.455625 -0.1075 3.72375 -1 4 C-2.37466625 6.47636012 -2.37466625 6.47636012 -3 9 C-3.33 8.34 -3.66 7.68 -4 7 C-3.22265625 5.2734375 -3.22265625 5.2734375 -2.0625 3.375 C-1.381875 2.26125 -0.70125 1.1475 0 0 Z " fill="#39624C" transform="translate(178,299)"/>
<path d="M0 0 C0.99 0 1.98 0 3 0 C1.92598892 2.91517292 1.22189824 4.77810176 -1 7 C-1.04254356 5.00045254 -1.04080783 2.99958364 -1 1 C-0.67 0.67 -0.34 0.34 0 0 Z " fill="#335A43" transform="translate(212,293)"/>
<path d="M0 0 C4.42857143 5.14285714 4.42857143 5.14285714 5 9 C4.34 8.67 3.68 8.34 3 8 C3 7.34 3 6.68 3 6 C2.01 6 1.02 6 0 6 C0 4.02 0 2.04 0 0 Z " fill="#3F5C4D" transform="translate(252,223)"/>
<path d="M0 0 C2.12046792 3.53411321 2.53199289 6.94393835 3 11 C1.5 10 1.5 10 0 8 C-0.27345479 5.28153765 -0.13491285 2.74322801 0 0 Z " fill="#1A3B7A" transform="translate(350,217)"/>
</svg>
